<svg width="1200" height="800" viewBox="0 0 1200 800" fill="none" xmlns="http://www.w3.org/2000/svg">
  <defs>
    <radialGradient id="g1" cx="72%" cy="18%" r="70%">
      <stop stop-color="#FF6B35" stop-opacity="0.24"/>
      <stop offset="0.42" stop-color="#2A0B12" stop-opacity="0.72"/>
      <stop offset="1" stop-color="#030711"/>
    </radialGradient>
    <linearGradient id="line" x1="0" y1="0" x2="1200" y2="800">
      <stop stop-color="#FF6B35" stop-opacity="0.75"/>
      <stop offset="1" stop-color="#ffffff" stop-opacity="0.05"/>
    </linearGradient>
    <filter id="blur"><feGaussianBlur stdDeviation="18"/></filter>
  </defs>
  <rect width="1200" height="800" fill="url(#g1)"/>
  <g opacity="0.14">
    <path d="M 0 80 C 250 20, 460 140, 1200 40" stroke="#FF6B35" stroke-width="1"/><path d="M 0 158 C 250 60, 460 165, 1200 104" stroke="#FF6B35" stroke-width="1"/><path d="M 0 236 C 250 100, 460 190, 1200 168" stroke="#FF6B35" stroke-width="1"/><path d="M 0 314 C 250 140, 460 215, 1200 232" stroke="#FF6B35" stroke-width="1"/><path d="M 0 392 C 250 180, 460 240, 1200 296" stroke="#FF6B35" stroke-width="1"/><path d="M 0 470 C 250 220, 460 265, 1200 360" stroke="#FF6B35" stroke-width="1"/><path d="M 0 548 C 250 260, 460 290, 1200 424" stroke="#FF6B35" stroke-width="1"/><path d="M 0 626 C 250 300, 460 315, 1200 488" stroke="#FF6B35" stroke-width="1"/><path d="M 0 704 C 250 340, 460 340, 1200 552" stroke="#FF6B35" stroke-width="1"/>
  </g>
  <g opacity="0.16">
    <circle cx="120" cy="90" r="2" fill="#FF6B35"/><circle cx="257" cy="283" r="3" fill="#FF6B35"/><circle cx="394" cy="476" r="4" fill="#FF6B35"/><circle cx="531" cy="669" r="5" fill="#FF6B35"/><circle cx="668" cy="242" r="2" fill="#FF6B35"/><circle cx="805" cy="435" r="3" fill="#FF6B35"/><circle cx="942" cy="628" r="4" fill="#FF6B35"/><circle cx="1079" cy="201" r="5" fill="#FF6B35"/><circle cx="236" cy="394" r="2" fill="#FF6B35"/><circle cx="373" cy="587" r="3" fill="#FF6B35"/><circle cx="510" cy="160" r="4" fill="#FF6B35"/><circle cx="647" cy="353" r="5" fill="#FF6B35"/><circle cx="784" cy="546" r="2" fill="#FF6B35"/><circle cx="921" cy="119" r="3" fill="#FF6B35"/><circle cx="1058" cy="312" r="4" fill="#FF6B35"/><circle cx="215" cy="505" r="5" fill="#FF6B35"/><circle cx="352" cy="698" r="2" fill="#FF6B35"/><circle cx="489" cy="271" r="3" fill="#FF6B35"/><circle cx="626" cy="464" r="4" fill="#FF6B35"/><circle cx="763" cy="657" r="5" fill="#FF6B35"/><circle cx="900" cy="230" r="2" fill="#FF6B35"/><circle cx="1037" cy="423" r="3" fill="#FF6B35"/><circle cx="194" cy="616" r="4" fill="#FF6B35"/><circle cx="331" cy="189" r="5" fill="#FF6B35"/><circle cx="468" cy="382" r="2" fill="#FF6B35"/><circle cx="605" cy="575" r="3" fill="#FF6B35"/><circle cx="742" cy="148" r="4" fill="#FF6B35"/><circle cx="879" cy="341" r="5" fill="#FF6B35"/>
  </g>
  <rect x="66" y="66" width="1068" height="668" rx="44" fill="#050912" fill-opacity="0.42" stroke="#FF6B35" stroke-opacity="0.22"/>
  <path d="M 110 75 L 210 45 L 310 75 L 285 210 Q 210 255 135 210 Z" stroke="url(#line)" stroke-width="12" stroke-linecap="round" stroke-linejoin="round" opacity="0.85"/>
  <path d="M 110 75 L 210 45 L 310 75 L 285 210 Q 210 255 135 210 Z" stroke="#FF6B35" stroke-width="28" stroke-linecap="round" stroke-linejoin="round" opacity="0.18" filter="url(#blur)"/>
  <circle cx="940" cy="160" r="130" fill="#FF6B35" opacity="0.10" filter="url(#blur)"/>
  <circle cx="250" cy="610" r="180" fill="#FF6B35" opacity="0.06" filter="url(#blur)"/>
  <text x="82" y="690" fill="white" opacity="0.42" font-family="Arial, Helvetica, sans-serif" font-size="42" font-weight="700" letter-spacing="4">AI CYBERSECURITY</text>
</svg>