<svg xmlns="http://www.w3.org/2000/svg" viewBox="0 0 152 50" role="img" aria-label="FinXT">
  <defs>
    <linearGradient id="finxt-x-gradient" x1="0%" y1="100%" x2="100%" y2="0%">
      <stop offset="0%" stop-color="#F04F9A"/>
      <stop offset="40%" stop-color="#A855F7"/>
      <stop offset="100%" stop-color="#22D3EE"/>
    </linearGradient>
    <filter id="finxt-x-glow" x="-35%" y="-35%" width="170%" height="170%">
      <feDropShadow dx="0" dy="2" stdDeviation="2" flood-color="#F04F9A" flood-opacity="0.5"/>
      <feDropShadow dx="0" dy="0" stdDeviation="2.8" flood-color="#22D3EE" flood-opacity="0.3"/>
    </filter>
  </defs>
  <g opacity="0.6">
    <line x1="6" y1="38" x2="22" y2="38" stroke="#F04F9A" stroke-width="2.2" stroke-linecap="round"/>
    <line x1="8" y1="42" x2="18" y2="42" stroke="#A855F7" stroke-width="1.6" stroke-linecap="round"/>
    <line x1="10" y1="9" x2="10" y2="17" stroke="#22D3EE" stroke-width="1.5" stroke-linecap="round"/>
    <circle cx="18" cy="7" r="2.8" fill="none" stroke="#F04F9A" stroke-width="1.4"/>
  </g>
  <g opacity="0.38" stroke-linecap="round">
    <line x1="70" y1="8" x2="70" y2="42" stroke="#22D3EE" stroke-width="1.6"/>
    <line x1="75" y1="6" x2="75" y2="44" stroke="#A855F7" stroke-width="1.6"/>
    <line x1="80" y1="9" x2="80" y2="41" stroke="#F04F9A" stroke-width="1.6"/>
    <line x1="85" y1="6" x2="85" y2="44" stroke="#22D3EE" stroke-width="1.6"/>
    <line x1="90" y1="8" x2="90" y2="42" stroke="#A855F7" stroke-width="1.6"/>
  </g>
  <text x="18" y="35" font-family="Inter, Arial Black, system-ui, sans-serif" font-size="23" font-weight="900" fill="#FFFFFF" stroke="#111111" stroke-width="2.4" paint-order="stroke fill" letter-spacing="-1">FIN</text>
  <text x="108" y="35" font-family="Inter, Arial Black, system-ui, sans-serif" font-size="23" font-weight="900" fill="#FFFFFF" stroke="#111111" stroke-width="2.4" paint-order="stroke fill" letter-spacing="-1">T</text>
  <g filter="url(#finxt-x-glow)">
    <line x1="56" y1="41" x2="104" y2="9" stroke="#111111" stroke-width="11" stroke-linecap="round"/>
    <line x1="56" y1="9" x2="104" y2="41" stroke="#111111" stroke-width="11" stroke-linecap="round"/>
    <line x1="56" y1="41" x2="104" y2="9" stroke="url(#finxt-x-gradient)" stroke-width="8.5" stroke-linecap="round"/>
    <line x1="56" y1="9" x2="104" y2="41" stroke="url(#finxt-x-gradient)" stroke-width="8.5" stroke-linecap="round"/>
    <line x1="61" y1="37" x2="99" y2="13" stroke="#FFFFFF" stroke-width="1.3" stroke-linecap="round" opacity="0.6"/>
    <line x1="61" y1="13" x2="99" y2="37" stroke="#FFFFFF" stroke-width="1.3" stroke-linecap="round" opacity="0.6"/>
    <circle cx="80" cy="25" r="2.2" fill="none" stroke="#FFFFFF" stroke-width="1" opacity="0.7"/>
    <circle cx="80" cy="25" r="0.8" fill="#FFFFFF" opacity="0.85"/>
  </g>
  <g opacity="0.55">
    <circle cx="106" cy="11" r="2" fill="none" stroke="#22D3EE" stroke-width="1.2"/>
    <text x="114" y="15" font-size="6.5" font-weight="700" fill="#F04F9A" font-family="Inter, sans-serif">x</text>
    <circle cx="126" cy="38" r="1.8" fill="none" stroke="#F04F9A" stroke-width="1.2"/>
  </g>
</svg>
